<svg width="25" height="24" viewBox="0 0 25 24" fill="none" xmlns="http://www.w3.org/2000/svg">
<path d="M12.5 3C7.52991 3 3.5 7.02991 3.5 12C3.5 16.9701 7.52991 21 12.5 21C17.4701 21 21.5 16.9701 21.5 12C21.5 7.02991 17.4701 3 12.5 3ZM12.5 19.4732C8.37366 19.4732 5.02679 16.1263 5.02679 12C5.02679 7.87366 8.37366 4.52679 12.5 4.52679C16.6263 4.52679 19.9732 7.87366 19.9732 12C19.9732 16.1263 16.6263 19.4732 12.5 19.4732Z" fill="#FF4300"/>
<path d="M11.5354 8.46429C11.5354 8.72003 11.637 8.9653 11.8178 9.14614C11.9987 9.32698 12.2439 9.42857 12.4997 9.42857C12.7554 9.42857 13.0007 9.32698 13.1815 9.14614C13.3624 8.9653 13.464 8.72003 13.464 8.46429C13.464 8.20854 13.3624 7.96327 13.1815 7.78243C13.0007 7.60159 12.7554 7.5 12.4997 7.5C12.2439 7.5 11.9987 7.60159 11.8178 7.78243C11.637 7.96327 11.5354 8.20854 11.5354 8.46429ZM12.9818 10.7143H12.0175C11.9292 10.7143 11.8568 10.7866 11.8568 10.875V16.3393C11.8568 16.4277 11.9292 16.5 12.0175 16.5H12.9818C13.0702 16.5 13.1425 16.4277 13.1425 16.3393V10.875C13.1425 10.7866 13.0702 10.7143 12.9818 10.7143Z" fill="#FF4300"/>
</svg>
