<svg width="24" height="24" viewBox="0 0 24 24" fill="none" xmlns="http://www.w3.org/2000/svg">
<path d="M13.7266 14.3203L15.0156 15.9727C15.4297 15.4961 15.7422 14.8984 15.9531 14.1797C16.1719 13.4531 16.2812 12.6211 16.2812 11.6836C16.2812 10.5039 16.1016 9.49609 15.7422 8.66016C15.3828 7.82422 14.8789 7.19531 14.2305 6.77344C13.582 6.34375 12.8203 6.125 11.9453 6.11719C11.0625 6.125 10.293 6.34375 9.63672 6.77344C8.98047 7.20312 8.47266 7.83984 8.11328 8.68359C7.76172 9.51953 7.58594 10.5312 7.58594 11.7188C7.58594 12.9062 7.76172 13.9219 8.11328 14.7656C8.47266 15.6016 8.98047 16.2344 9.63672 16.6641C10.293 17.0938 11.0625 17.3125 11.9453 17.3203C12.2891 17.3203 12.6133 17.2852 12.918 17.2148L10.7031 14.3203H13.7266ZM4 11.7188C4 9.91406 4.34375 8.35547 5.03125 7.04297C5.71875 5.73047 6.66406 4.73047 7.86719 4.04297C9.07031 3.34766 10.4297 3 11.9453 3C13.4531 3 14.8047 3.34766 16 4.04297C17.2031 4.73047 18.1484 5.73047 18.8359 7.04297C19.5234 8.35547 19.8672 9.91406 19.8672 11.7188C19.8672 13.2031 19.6289 14.5234 19.1523 15.6797C18.6836 16.8359 18.0234 17.7969 17.1719 18.5625L19.5859 21.6094H16.2812L14.9219 19.9219C14 20.2656 13.0078 20.4375 11.9453 20.4375C10.4297 20.4375 9.07031 20.0938 7.86719 19.4062C6.66406 18.7109 5.71875 17.707 5.03125 16.3945C4.34375 15.0742 4 13.5156 4 11.7188Z" fill="#FF4300"/>
</svg>
